<svg version="1" xmlns="http://www.w3.org/2000/svg" width="1365.333" height="1365.333" viewBox="0 0 1024.000000 1024.000000"><path d="M.9 45.2c-.5 1.6-.4 4.6.2 4.2.4-.2 1 0 1.4.6.3.5.1 1-.6 1s-1 .3-.6.6c.3.3 1.4.1 2.4-.5s1.4-1.1.9-1.1c-.5 0-.2-.8.5-1.7 1-1.1 1-1.4.2-.9-.8.4-1.3.1-1.3-.8 0-1.3-2.7-2.4-3.1-1.4zm1.9 3.3c-.3.3-.9-.2-1.2-1.2-.6-1.4-.5-1.5.5-.6.7.7 1 1.5.7 1.8z"/><path d="M7.7 46.7c-.4.3-.2 1.2.3 1.8.7.8.4 1.7-.8 2.8C5.4 52.9 5.2 53 2 53c-1.1 0-2 .7-2 1.5S.5 56 1 56c.6 0 1-.5 1-1.1 0-.5.5-.7 1-.4.6.4.8 1.1.5 1.6-.4.5-.1.9.5.9.7 0 .9-.9.5-2.3-.5-1.8-.4-1.9.5-.7 1 1.2 1.2 1.3 1.7.1.3-.7 1.4-2.2 2.4-3.2 1.1-1.1 1.9-2.5 1.9-3.2 0-.8-.4-.7-1 .3-.9 1.3-1.4.7-1.1-1.3.1-.9-.4-.9-1.2 0zM13 47.8c.6 1.3 1.4 2.1 1.8 1.8.3-.4-.2-1.4-1.2-2.4-1.8-1.6-1.8-1.6-.6.6zM16.9 47.5c-.1.3-.2 1-.3 1.6 0 .7-1 1.5-2.1 1.9-1.7.6-1.5.8 1.3 1.2 3.1.4 4.6-1.2 2.2-2.7-.6-.4-.8-1.1-.5-1.6.4-.5.4-.9.1-.9-.3 0-.7.2-.7.5zM25.9 48.7c-1.3 1.7-1.3 1.7.6.3 1.1-.8 2.2-1.6 2.4-1.7.2-.2 0-.3-.6-.3s-1.7.8-2.4 1.7zM39 49.3c-1.2 2.1-1.2 2.1.6.7 1-.8 2-1.5 2.2-1.6.2-.1-.1-.4-.5-.7-.5-.3-1.5.4-2.3 1.6zM22 49.5c-.7.9-1.1 1.8-.8 2 .3.3 1.1-.1 1.8-1s1.1-1.8.8-2c-.3-.3-1.1.1-1.8 1zM32.6 49.6c-.5 1.3-.4 1.4.7.6.8-.7 1.8-.8 2.2-.4.5.4.5.1.1-.6-1-1.7-2.3-1.5-3 .4zM43 48.4c.3.3 1.8.7 3.4 1 1.6.3 2.5.2 2.2-.1-.4-.4-1.9-.9-3.4-1.1-1.5-.2-2.4-.1-2.2.2zM82.1 50.3c-1.3 2.1-1.2 2.1.5.5 1-1 1.6-2 1.3-2.2-.3-.3-1.1.5-1.8 1.7z"/><path d="M27.5 50.7c-.2.8-1.3 1.3-2.2 1.2-1-.1-2.9.3-4.3.8-1.4.6-3.5.9-4.8.8-1.8-.2-2 0-1.1 1.1 1.4 1.7.5 1.8-2.2.4-1.2-.7-1.9-.7-1.9-.1 0 1.2 3.3 2.4 7.8 2.9.7.1 1.1.6.7 1.2-.3.5-1.5.6-2.8.1-1.3-.5-3-.5-3.9 0-1.1.6-1.9.5-2.4-.2-.4-.7-.3-.9.4-.5.6.3 1.3.2 1.7-.4.3-.5-.1-1-.9-1-2 0-2.5-3.2-.6-4.7.8-.7 1-1.3.4-1.3-.7 0-2.4 1.6-3.8 3.5C5.8 56.8 4.1 58 2.4 58c-1.3 0-2.4.4-2.4.9s1.4.7 3.1.4c2.8-.4 2.9-.3 1.8 1.6-1.2 1.8-1.4 1.8-2.5.3S1.1 59.7.6 61s-.4 2.3.3 5.9c.1.2.8-.2 1.6-.9 1-.9 1.5-.9 1.5-.1 0 1-1.3 1.5-3.3 1.2-.4 0-.7 215.2-.7 478.4V1024h1024V556.9c0-419.4-.2-467.2-1.6-468.6-.8-.8-1.8-1.3-2.1-.9-.4.3.2 1.2 1.2 2 1.8 1.3 1.8 1.4-.2 2.5-2.2 1.1-5.3.6-5.3-.9 0-.5.9-.7 2-.5 1.2.2 1.8 0 1.5-.6-.4-.5-1-.7-1.5-.4-.5.3-1.1.1-1.4-.4-.4-.5.6-1.8 2.1-2.9l2.7-2-3.9.4c-2.2.1-4.6-.3-5.4-.9-1.2-.9-1.3-.9-.7.1.4.7.2 2.1-.5 3-1.1 1.4-1.1 1.5.1.4 1.6-1.4 3.4-1.6 2.5-.3-.3.5-.1 1.2.5 1.6.5.3 1 1.4 1 2.4s.7 2.4 1.5 3.1c1.7 1.4 2.1 4.5.4 3.5-.6-.4-.8-.9-.5-1.2.7-.7-2.7-4.3-3.6-3.7-.4.3-.8.1-.8-.5 0-.5.6-1.1 1.2-1.3.7-.3.2-.7-1-1-1.6-.5-2.5 0-3.3 1.4-.9 1.8-.9 2 .4 1.5 1.2-.4 1.4-.2 1 1-.5 1.4-.9 1.3-2.5-.7-1-1.2-1.5-2.6-1.2-3.1.3-.5.3-.9-.1-.9-.3 0-1 1-1.5 2.2l-.9 2.3v-2.2c-.1-1.2.3-2.5.9-2.8 1.6-1 3.2-4.5 2-4.5-.5 0-1 .6-1 1.4 0 .7-.7 1.9-1.6 2.7-1.3 1.1-1.4.9-.8-1.6.5-2.1.4-2.6-.5-2-.7.4-1.1 1.8-.8 3.2.4 2.2.3 2.2-1.3.8-.9-.8-2.5-1.5-3.6-1.4-1.4.1-1.3.3.6.8 1.8.5 2.4 1.3 2.2 2.7-.4 2.3-2.5 4.6-2.2 2.4.4-2.8 0-4.1-1-3.5-.6.4-.8.9-.6 1.3.2.4-1.1.7-3 .8-2.4 0-3.4-.4-3.4-1.4 0-1.2-.7-.9-2.7.9-1.5 1.3-2.1 1.6-1.4.6.9-1.2 1-1.7.2-1.7-.6 0-1.4.7-1.7 1.5-.8 2.1-2.5 1.9-1.8-.3.5-1.4.3-1.4-1.1.3-1.7 2-1.7 2-1.1-.1.5-1.5.1-2.4-1-2.8-1.3-.5-1.5-.2-1.1 1.3.3 1.1-.1 2.2-.9 2.5-.8.3-1.3 0-1.1-.7.1-.8-.8-1.1-2.5-.9-2.1.2-2.6-.1-2.2-1.2.3-.8 1.1-1.4 1.7-1.2.7.1.9.1.4-.1-.4-.3-.7-1.1-.7-1.8 0-.8-.5-1.7-1.2-2.1-.6-.4-.8-.3-.5.3.4.6 0 1.6-.8 2.3-.8.7-1.5 2-1.5 2.9 0 1.1-.4.8-1.3-.8-.6-1.3-1.6-2.3-2.2-2.2-1 .1-1.1.5-1.4 3.8-.1 1.5-.3 1.4-2.1-.2-1.1-1-2-1.3-2-.7 0 1.6-3.1.7-4.7-1.4-1.4-1.9-1.4-1.9-1.1.1.2 1.1.8 2.4 1.3 2.8.6.5.3.7-.7.4-.9-.3-1.9-.1-2.1.6-.2.7-1.1-.2-2-1.8-.9-1.7-1.6-2.4-1.7-1.7 0 1.4-2.1 1.2-3.3-.3-.6-.6-.7-.4-.4.5.2.8-.5 2.4-1.6 3.5-2 2-2 2-.8-.2 1.5-2.9 1.4-3.3-.8-3.3-1.4 0-1.8.6-1.5 2.2.5 2.3.4 2.3-.5.2-.5-1.2-1.4-2.5-2-2.9-.6-.3-.8-1.1-.5-1.7.4-.7.2-.8-.4-.4-1.6.9-1.5 3.3 0 3.8.7.3.5.7-.6 1.1-.9.4-1.5.3-1.1-.2.3-.5.1-1.2-.5-1.6-.5-.3-1-1.6-1.1-2.8v-2.2l-1.1 2.2c-1.3 2.7-4.3 3.2-3.4.5.6-1.6.5-1.6-.8.1-.9 1.2-1.5 1.4-1.8.6-.7-2.2-4.5-.1-4.3 2.4.1 1.2 0 1.4-.2.4-.2-.9-.9-1.5-1.4-1.1-.5.3-.6 1.1-.3 1.7.4.8.2.7-.7-.1-.9-.9-1-1.5-.3-2 .6-.4 1.3-1.7 1.6-2.8.5-1.8.2-2.1-1.6-1.6-1.1.3-1.5.7-.9.9 1 .4.9 1-.1 2.6-.8 1.2-1.3 2.9-1.1 3.8.2 1.2-.3 1.5-1.5 1.2-1.6-.4-1.6-.8-.4-3.1 1.2-2.4 1.2-2.8-.4-3.4-1.1-.4-1.2-.7-.3-.7.8-.1 1.1-.4.8-.7-.9-1-3.7 1.6-3.7 3.4 0 .8-.8 2.1-1.8 2.8-1 .8-1.2 1.3-.4 1.4.6 0 1.2.5 1.2 1.2 0 .6-.7.4-1.8-.5-1-1-2.1-1.5-2.3-1.3-.2.2-1.3-.5-2.3-1.5-1.2-1.1-1.4-1.9-.7-1.9s1-.4.7-.9c-.3-.5.1-1.1.9-1.5.8-.3 1.5-1.1 1.5-1.8 0-1-.2-1-.9 0-.4.7-1.7 1.5-2.7 1.6-1 .2-1.9.8-1.9 1.4 0 .7-.3 1.2-.7 1.2h-1.9c-.8 0-.7-.6.2-1.7.8-.9.9-1.4.3-1-.7.4-1.5 0-1.8-.9-.5-1.2-.9-1.4-2-.5-1.5 1.3-4.6.5-4.6-1.3 0-.7-.4-.6-.9.2s-2.5 1.4-4.5 1.4c-2.9 0-3.4.3-2.6 1.3.7.9.6 1.6-.5 2.5-.8.7-1.2 1.6-.9 2.1.9 1.5-.3 1-1.6-.7-1.1-1.2-1.1-1.5 0-1.2.7.2 1.5-.3 1.7-1 .4-.9-.3-1.1-2.5-.7-2.4.4-3.1.1-3.5-1.5-.3-1.1-.1-2 .4-2s.9.4.9.8 1 .8 2.2.9c1.9.2 1.8 0-.8-1.6-2.9-1.8-2.9-1.8-4.3.4-.9 1.5-2.4 2.2-4.5 2.3-2.9 0-3-.1-.8-1.1 1.2-.5 2.2-1.3 2.2-1.6 0-1.2-1.5-2.6-3-2.9-1-.1-.9.3.5 1.3 1.9 1.5 1.9 1.6-.3 2.1-1.2.4-2.2 1-2.2 1.5s-.8.9-1.7.9c-1.5 0-1.6-.2-.3-1 .8-.5 1.1-1 .5-1.1-.5 0-.1-.4 1-.9 1.7-.8 1.5-.9-1-.7-1.6.1-2.9.7-2.8 1.4.2.7-.8 1-2.5.8-1.5-.2-3.3.2-4.1.9-1.2.9-1.3.8-.6-.3.6-1.1.4-1.3-.9-.8-1.4.6-1.6.3-1.1-1.6.5-1.7.4-1.9-.4-.7-.9 1.3-1.2 1.2-2.6-.5-1-1.3-1.4-1.5-1.3-.5.2 1-.4 1.4-1.7 1.2-1.5-.2-1.6 0-.7.6 1.1.8 1.1 1-.1 1.5-.8.3-2.1-.3-3-1.4-2-2.3-3.7-2.5-3.7-.4 0 .8-.5 1.5-1.1 1.5-.6 0-.7-.6-.2-1.3.4-.6-.5-.4-2 .5-3.1 2.1-4.4 2.3-2.8.5.8-1 .7-1.4-.4-1.4-.8 0-1.2.4-.9.9.3.4.1.8-.5.8s-1.5-.9-2.1-2c-.6-1.1-1.6-1.7-2.2-1.4-.7.5-.6 1.1.6 1.9 1.3 1 1.4 1.8.7 3.6-.9 2.2-1 2.2-1 .3-.1-3.1-1.2-3.6-3.8-1.9-2.7 1.8-3.1.9-.5-1.2.9-.8 1.2-1.2.5-.9-.6.4-2.3.2-3.7-.4-2.2-.8-2.6-.7-2.6.9 0 2.7-1.2 3.3-3.2 1.4-1-.9-1.8-1.2-1.8-.7s-.5.2-1-.6c-.7-1.2-.9-1-.8.7.2 1.4.7 1.9 1.8 1.6 1.3-.4 1.3-.4 0 .6s-1.3 1.2 0 2.1c.8.5 1 1 .4 1-1.5 0-4.6-3.5-3.7-4.3.3-.4 0-.7-.7-.7-.9 0-.7-.7.6-2.3 1.7-2 1.6-2-.9.2-2.7 2.4-3.6 3.8-1.7 2.6.6-.3 1-.1 1 .5 0 .5-1.2 1-2.7.9-1.6-.1-3.2 0-3.8.2-.5.2-1-.1-1-.6 0-.6.3-.9.7-.8.4.2.5-.3.3-1-.3-.6-1.6-1.2-2.9-1.2-1.7 0-2.2.3-1.5 1.2.7.8.5 1.1-.5.9-.9-.1-1.9-.5-2.2-.9-1-1-2.6-.9-2 .2.3.4-.6 1.3-2 2-3.3 1.5-3.9 1.4-2.4-.4.7-.8 1.7-1.2 2.4-.8.6.3.3-.3-.7-1.4-1.3-1.5-1.5-2.3-.6-2.8.8-.6.7-1-.5-1.7-.9-.5-1.6-1.6-1.6-2.3 0-.8-.5-1.5-1.1-1.5-.7 0-.5.9.5 2.4 1.7 2.8 1.2 5.8-.9 5-1-.4-1.3.3-1 2.8.3 2.1.1 2.8-.4 1.9-.5-.7-1.4-1-2-.7-1.6 1-1.3 0 .5-1.8 1.2-1.2 1.2-1.6.2-1.6-.7-.1-.2-.8 1.2-1.6l2.5-1.5-2.8.6c-1.5.3-2.7.2-2.6-.2.1-.5-.2-1.9-.6-3.1-.6-1.7-1-2-1.6-1.1-.4.8-.4 1.6.2 1.9 1.6 1 1.8 6.4.3 7.8-1.2 1.1-1.4.8-1-2.3.3-2.1.2-3.4-.1-3.1-.3.3-1.2.1-2-.6-1-.8-1.7-.8-2.6.1-.7.7-.7 1.2-.2 1.1 2.4-.5 3.4.1 3.2 1.9 0 1.1-.5 1.7-.9 1.5-.5-.3-.5-1-.2-1.6.4-.6-.3-.5-1.6.2-1.8 1-2 1.4-.9 2.1 1.1.7 1.2 1 .1 2.1-1.1 1.1-1.3 1-1-.2.2-.9-.3-1.4-1.1-1.2-1.1.2-1.2 0-.4-1 .6-.7 1.2-2.5 1.5-4 .4-2 .1-2.5-.9-2.1-.8.3-1.3 1.4-1 2.4.3 1-.1 2-.8 2.3-.9.3-1.2-.2-1-1.5.3-1.7.2-1.9-1-.9-1.5 1.3-4.9 0-5.9-2.2-.4-.9-.5-.8-.4.2.2 2.8-1.3 4.9-3.4 4.5-1.4-.3-1.8 0-1.5.9.4.9 0 1.3-1.1 1.1-1.8-.3-1.8-.8-.7-3.8.4-1 .3-1.7-.4-1.7-.6 0-1.1.7-1.1 1.6 0 .8-.4 1.3-.9.9-.5-.3-1.2.3-1.4 1.2-.4 1.4-.5 1.3-.6-.5 0-1.2.4-2.2 1.1-2.2.6 0 .8-.3.5-.6-.4-.4-1.4-.1-2.4.7-1.5 1.2-1.6 1.2-1-.4.3-.9.2-1.7-.3-1.7-1.6 0-1.6 3.5 0 4.8 1.3 1 1.2 1.1-.4.5-1.3-.4-2.3 0-3.2 1.2-1.8 2.5-1.8 1.1.1-2.4 1.3-2.6 1.3-3 0-4.1-1.3-1.1-1.4-1-.9.4.4 1.2.2 1.5-.9 1-.8-.3-1.8-.1-2.2.5-.3.6-1.6 1.1-2.9 1.1-1.2 0-2.8.6-3.5 1.2-1.1 1.1-1.2.9-.6-1 .6-2.1.4-2.3-1.3-1.8-1.1.4-2.3.2-2.7-.4-.4-.6-.1-1.1.6-.9 3 .4 4.7-.2 5.3-1.7.5-1.4.4-1.5-.9-.4-.9.7-1.8 1-2.2.7-.3-.4-1.3-.2-2.3.3-1.1.6-2.3.5-3.6-.4-1.5-1.1-2.1-1.1-3.1-.1-1.4 1.5-.5 2.9 1.1 1.5.7-.5 1.8-.5 2.5-.1.9.6 1 1.1.2 1.5-.6.4-1.1.2-1.1-.4 0-.6-.5-.8-1.1-.5-.6.4-.8 1.3-.5 2 .3.8-.1 1.8-.8 2.4-.9.8-1.9.5-3.4-1-1.8-1.6-2.2-1.7-2.2-.4 0 .8-.5 1.5-1.1 1.5-.5 0-.7-.5-.3-1.2.5-.8 0-.9-1.7-.5-1.3.4-3.2.7-4.2.7s-1.6.4-1.2 1c.3.5 1.3.7 2.3.4 1.3-.4 1.2-.3-.2.7-1.5.9-2.1.9-2.4 0-.7-2-3.3-4.1-4.4-3.5-.6.4-.8-.2-.4-1.7l.6-2.4-1.1 2.2c-.7 1.3-1.6 2.3-2.1 2.3s-.6.4-.3 1c.3.5.3 1-.2 1-1.2-.1-4.5-5-3.3-5 .5 0 1-.5 1-1 0-1.2-2.2-.9-3.2.5-.4.5-.3 1.5.3 2.1.6.8.3 1.3-1.1 1.7-1.1.3-1.8.1-1.5-.4.3-.4-.6-1.1-2-1.5-1.4-.3-2.5-1.2-2.5-1.9 0-1-.8-1.2-2.7-.6-1.6.4-3.8.6-5 .5-1.2-.1-2.1.2-1.8.5.2.4 0 1.3-.6 2.1-.6 1-.9 1.1-.9.3s-1.1-1.1-3-.9c-1.6.2-2.7 0-2.5-.4.3-.4-.2-1-1-1.3-.8-.4-2.2.4-3.4 1.8-1 1.4-2.1 2.5-2.4 2.5-1.1 0 0-3.2 1.4-4.1 2.3-1.4-.4-.9-3.1.6-1.4.8-1.9 1.4-1.2 1.5.7 0 1 .5.6 1.1-.4.8-.9.7-1.5-.2-.4-.8-.3-1.9.3-2.6.7-.9.7-1.3 0-1.3-.5 0-1.2.6-1.5 1.4-.6 1.5-4.7 2.9-4.7 1.5 0-.5.6-.9 1.3-1 .6 0-.1-.7-1.8-1.4-2-.9-3.6-1-4.7-.4-1 .5-1.8.6-1.8.2 0-.4-.4-.2-.9.5-.7 1.1-.9 1.1-1.4-.2-.4-.9-.2-1.6.3-1.6.6 0 1-.5 1-1.2 0-.6-1.1-.1-2.4 1.1-1.4 1.3-3 2-3.6 1.6-.7-.4-1.6-.1-2.1.6-.8 1.3-1.3-1.6-1-6.1 0-1-.1-1.1-.5-.2-.3.6-.9 1-1.4.7-1-.6-.8 1.5.3 3.2.7 1.2-1 2.9-2 2-.3-.3-1.6-.2-2.9.3-1.6.6-2.4.6-2.4-.1 0-.6-.4-.7-1-.4-.5.3-1.5-.5-2.1-1.9l-1.2-2.5-2.5 1.9c-3 2.4-6.7 2.7-5.9.5.8-1.9-1.2-3-2.6-1.6-.9.9-.7 1.1.8.6 1.9-.6 1.9-.6.2.8-1.8 1.5-1.8 1.6 0 2.6 1.6.9 1.6 1 .1 1.1-.9 0-2-1.3-2.7-3-.5-1.7-.6-3-.2-3 .5 0 1.1-.6 1.4-1.3.3-.7-.5-1.3-2-1.3-1.7-.2-2.3.2-1.9 1.2.3.8.9 2.1 1.2 2.9.7 1.8-1.2 2-2 .2-.4-.6-.4-.2-.2 1 .3 1.9.1 2-1.4 1.1-1-.7-1.6-1.9-1.3-2.7.4-1.4.3-1.4-.6-.1-.8 1.2-1.1 1.2-1.7-.3-.6-1.6-.8-1.6-2.4-.2-.9.8-2 1.2-2.3.8-.4-.3-.7.2-.7 1.3 0 1.4-.7.9-2.7-1.9-1.8-2.6-3-3.4-3.7-2.7-1.4 1.4-5.9 1.3-5-.2.4-.7.3-.8-.4-.4-.6.4-.9 1.3-.6 2.1.5 1.2 1.6 1.2 6.7.2.5-.1 1.1.4 1.3 1.1.1.7 0 .8-.3.2-.3-.7-1.3-.6-2.9.5-1.3.8-2.4 1.2-2.4.8 0-.5-1.9-.9-4.3-.9-2.3-.1-3.6.1-2.9.3.6.3 1.2.9 1.2 1.4 0 1.6-3-.3-3.1-2 0-1.1-.2-1.2-.6-.3-.4 1-.9.9-2-.5-1.3-1.6-1.4-1.6-.9-.1.5 1.7-.3 1.8-9.7.9-.5-.1-.5-.6-.2-1.1.3-.6.1-1-.4-1-.6 0-1.1.8-1.1 1.7 0 3.1-1.5 0-1.9-4-.1-.4-.9-.7-1.8-.7-1.5 0-1.4.2.3 1.5 1.9 1.4 1.9 1.5-.3 2.1-1.3.3-2.1 1-1.8 1.3.2.4-.2.8-1 .8-1.1 0-1.2-.4-.4-1.4.6-.7.9-1.4.5-1.4-.3-.1-.9-.2-1.3-.3-.5-.1-1.5-.5-2.3-1-1.2-.7-1.3-.6-.2.5 2.1 2.3 1.3 3-1.5 1.2-2.4-1.5-2.6-1.5-1.5-.1 1 1.3 1 1.8.1 2.4-.7.4-1.5.2-1.7-.4-.2-.7-.9-1.2-1.6-1.2-.8 0-1.1-1-.8-2.9.4-2.9-2.1-5.1-3.3-3-.4.5-.1.8.6.7 2-.5 2.2 3 .3 4.9-1.7 1.7-1.7 1.7-1.2-.5.4-1.6.1-2.5-1.3-3.2-1.5-.8-2.1-.5-3.3 1.7-.8 1.6-1.5 2.4-1.6 1.9 0-.5-.8-.2-1.7.5-.9.8-1.4.9-1 .3.4-.7 0-1.5-.9-1.8-.9-.4-1.3-.2-.8.5.4.7.1 1-.7.7-.8-.3-1.3-1.1-1.1-1.7.1-.7-.8-.5-2.3.5-2.1 1.4-2.8 1.5-3.8.4-.8-.8-.8-1.1-.1-.7.7.4 1.4-.2 1.7-1.3.5-1.8.4-1.8-2.1-.2s-2.6 1.6-1.9-.2c.6-1.6.5-1.7-.7-.6-.9.6-1.5 1.5-1.4 1.8.2 1.8-.3 2.2-1.6 1-.7-.7-1.2-1.8-.9-2.4.2-.7 0-1.5-.6-1.9-.6-.3-.9 0-.5.9.7 1.9-3.2 3.2-5.1 1.6-1-.9-1.6-.7-2.4.7-.9 1.6-1.2 1.6-2.1.3-1.2-1.8-1.3-3.3-.2-2.6.5.3.9-.1.9-.9 0-1.1-.4-1.2-1.4-.4-.9.9-1.7.8-2.8-.1-1-.9-1.5-.9-1.5-.1 0 .6.4 1.1.9 1.1 1.7 0 1.9 2.6.4 4.5-.9 1.2-1.3 1.4-1.1.5.3-.8-.1-2-.8-2.7-1.4-1.5-2.8-1.7-2-.4.6 1-4.3 2.5-5.2 1.6-.3-.3.2-.5 1.1-.5.9 0 1.8-.4 2.1-.9.4-.5-.3-.7-1.4-.4-1.3.3-2 0-2-.8 0-1-.3-1-1.2-.1-1.6 1.6-4.1 1.5-3.3-.1.4-.6 0-.4-.9.7-1.4 1.7-1.5 1.6-2.4-1.5l-.9-3.4-.5 3.3c-.3 2.3 0 3.6.9 3.9 1.7.7 1.7 2-.1 2-.8 0-1.7-1.1-2.1-2.4-.6-2.7-2.3-3-4.1-.6-1.1 1.5-1.5 1.6-2.6.4-.9-1-.9-1.2 0-.7.6.4 1.2.4 1.3-.1 0-.4.2-1.6.4-2.6.2-.9-.1-1.5-.6-1.1-.5.3-.6 1-.3 1.6.4.6-.1.8-1.6.3-1.3-.4-2-.3-1.7.2.3.5.2 1.5-.4 2.3-.7 1.2-.9.9-.9-1s-.2-2.2-.9-1c-.6.8-.7 1.8-.5 2.2.3.4.1.8-.4.8-.6 0-.9-1.1-.8-2.5 0-1.4.5-2.5 1-2.5s.7-.3.3-.6c-.3-.3-1.2-.2-1.9.2-2.1 1.3-4.1 1.4-5.7.1-1-.8-1.3-.8-.8-.1.9 1.6-1 2.1-6.3 1.7-6.9-.5-10.3-.5-13 .1-2.1.6-2.2.5-.5-.3 2.2-1.1 2.1-1.2-1.2-1.6-1.4-.1-2 .2-1.6 1.1.7 1.9-1.6 1.8-3.8-.1-1.5-1.4-1.8-1.4-3.3 0-1.3 1.3-1.6 1.4-1.6.2 0-1.6-3-1.9-3.1-.3 0 .6-.4.1-.9-1.2-.5-1.2-1.5-2.2-2.2-2.2-.9 0-.9.3.2 1 1.6 1 1.4 1.1-3.5 1.5-1.6.1-4.3.5-5.8 1-2.1.5-2.7.4-2.5-.6.2-.8-.7-1.4-2.4-1.4-1.5-.1-2.4.3-2.1.8.3.5-.4.4-1.5-.2-1.5-.8-2.3-.8-2.7 0-.5.6-1.2.4-2.2-.8-1-1.3-1.6-1.5-1.9-.6-.6 1.5-4.4 1.8-4.4.4 0-.5-1.1-.8-2.5-.7-1.4 0-2.5.5-2.5 1.1 0 .5-.4.4-.9-.4s-2.1-1.5-3.4-1.5c-1.4-.1-2.3.2-2 .7.3.5 1.3.7 2.3.4 1.4-.3 1.8.1 1.7 1.4-.1 2.1-.6 2.3-2.7.9-.9-.6-1.7-.5-2.2.3-.6.9-.8.9-.8-.1 0-.6-1-1.2-2.2-1.3-1.3 0-1.7-.3-1-.6.6-.2 1.2-1.3 1.2-2.4 0-1.6-.5-1.4-3.1 1.3-1.8 1.8-2.6 2.5-1.9 1.5 1-1.4 1.1-2 .1-3-1-.9-1.1-.8-.6.5.5 1.2.2 1.8-.6 1.9-.8 0-2.2.2-3.1.4-1 .2-1.8-.2-1.8-.8 0-.7-.4-.6-1 .3-.5.8-1.2 1.2-1.5.8-.3-.3.1-1.3 1-2.2 1.2-1.2 1.3-1.6.3-1.6-1.7 0-3.9 1.5-4.1 2.6 0 .5-.6 1.4-1.2 2-.9.9-1.5.7-2.4-.8-.7-1.1-1.9-1.7-2.6-1.4-.8.3-2.1-.2-3-1-.8-.9-1.5-1.2-1.5-.8 0 .5-.5.3-1.1-.3-1.6-1.6-4 .7-2.9 2.7.6 1.2.3 1.6-1 1.6-1 0-1.6-.4-1.4-.8.3-.4 0-.8-.5-.8-.6 0-1.1-.5-1.1-1.1 0-.8.5-.7 1.5.1 1.3 1.1 1.4 1 .9-.4-.8-2-1.8-2-3.4-.1-.7.8-.9 1.5-.4 1.5.4 0 .3.5-.4 1.2-.9.9-1.5.9-2.4 0-.9-.9-.9-1.2 0-1.2.7 0 1.1-1 1.1-2.3-.1-1.6-.2-1.8-.6-.5-.5 2-2.8 2.4-3.8.8-.4-.6-1.1-.8-1.6-.4-.5.3-.7.8-.5 1.2.2.4-1.1.7-2.9.7-1.8 0-3.1-.3-2.9-.6.2-.4-.3-.9-1.1-1.3-.8-.3-1.4-.2-1.2.2.1.4-.6 1.8-1.6 3.2-.9 1.3-1.7 2-1.7 1.4 0-.5.6-1.6 1.2-2.2 1-1 1-1.5-.2-2.2-2-1.3-2.6-1.2-4.4.5-.8.8-2 1.5-2.6 1.5-.6 0-.8.5-.4 1.2s.3.8-.4.4c-1.7-1-1.5-2.6.2-2.6 1.5 0 3.2-3.7 2.2-4.7-.3-.4-.6-.1-.6.6s-1 1.1-2.2.9c-1.4-.2-2.2.2-2 .9.1.8-.8 1.3-2.3 1.3-1.4 0-2.4-.3-2.4-.8.3-1.8-.2-2.2-1.5-1-.8.7-1.2 1.5-1.1 1.8.2.3 0 1.2-.6 2-.7 1.3-.9 1.3-.9 0s-.1-1.3-1 0c-.6.9-1 1.1-1 .3 0-.7-.7-1-1.5-.7-.8.3-2.1-.1-2.9-.9-1.4-1.3-1.3-1.5.4-2 1.1-.3 2-1.1 2-1.9 0-.8-.3-.9-.8-.3-1 1.5-3.5 1.2-4.9-.5-.8-1-.8-.2.2 2.2 1.9 4.6 1.9 5.2.1 3.6-.8-.7-1.2-1.6-.9-2.1.2-.4-.1-.7-.7-.7s-.8-.5-.4-1.1c.4-.7.1-1-.7-.7-.8.3-1.3 1.2-1.1 2.2.2.9-.2 1.6-.8 1.6-.6 0-.9-.4-.5-.9.3-.5.1-1.2-.4-1.5-.5-.4-1.2-.2-1.6.4-.7 1.1-4.4-.5-5.7-2.4-.5-.7-.8-.4-.8.7 0 1.4-.5 1.6-2.5 1.1-1.7-.4-2.5-.2-2.5.7 0 1.1-.2 1.1-.9-.1-.6-.8-.8-1.7-.5-2.1.2-.4-.1-1.1-.7-1.5-.7-.4-.9-.3-.5.4 1.2 1.9-1.7 2.6-3.1.7-1.2-1.7-1.3-1.7-1.3-.2 0 1-.8 1.7-2.1 1.7s-1.8-.4-1.3-1.2c.5-.7.3-.8-.6-.3-.7.4-1.6.2-2.1-.6-.7-1.2-.9-1.2-.9 0 0 1-.3 1.1-1.4.2-1.1-.9-1.7-.9-2.8.2-1.1 1.2-1.5 1.2-2.5-.2-1.1-1.3-1.1-1.1-.3 1.4.9 2.9.9 3-.6.7l-1.7-2.2-1.9 2.2c-1 1.2-1.6 2.8-1.4 3.5.3.7.1 1.3-.4 1.3s-.8-1.3-.7-2.9c.1-1.6.5-2.7 1-2.4.4.2.7-.1.7-.6 0-1-3.3-1.6-7.2-1.3-1 .1-1.7-.4-1.5-1.1.1-.7-.8-1.1-2.7-.9-2 .3-2.6 0-2.1-.9.5-.8.4-1-.3-.5-.6.4-.9 1.3-.6 2.1.4.8-.1 1.7-.9 2.1-.8.3-1.8 1.7-2.1 3-.4 1.4-1.1 2.2-1.7 1.8-.7-.4-.7-1-.1-1.6.5-.5.8-1.7.5-2.7-.5-1.9-4.2-4.6-5.1-3.7-.3.3 0 .6.6.6.7 0 1.2.4 1.2.8 0 .5-.8.9-1.7.9-2 0-5.4-2.7-4.7-3.8.2-.4-.6-.5-1.8-.1l-2.2.5 2.2 1c2.4 1.1 2.8 2.2 1.2 3.2-.6.3-1.7-.1-2.6-.9-.9-.9-2-1.3-2.6-1-.5.4-.5-.4.2-1.6l1.2-2.2-2.5 1.8c-2.5 1.9-4.1 5-2.8 5.7.3.2 0 .2-.6.1-.7-.2-1.3.2-1.3.8 0 .6-.3.9-.6.6-.3-.4-.1-1.5.5-2.7.9-1.6.8-2.2-.8-3.1-2.7-1.4-3-1.3-2.8 1 .1 1.1.5 2 .9 2s.8.5.8 1c0 .6-1.1.3-2.4-.7-1.3-1-2.2-2.2-1.9-2.6.3-.4-.6-.5-1.9-.2-1.6.4-3.1-.2-5.2-2.2-2.2-2-2.8-2.2-2.3-.9.6 1.5.4 1.7-1 1.1-2.9-1.2-4.8-1.1-4.5.2.1.7-.2 1.3-.6 1.3-.5 0-.9.7-.9 1.5 0 .9.6 1.4 1.3 1.1.8-.3 1.1 0 .8.9-.3.8-1.2 1.1-1.9.9-1.7-.7-2.5-4-1.3-5.2.7-.7.6-1.6-.1-2.9-1.1-1.6-1.1-1.6-.9.6.2 1.3-.3 2.6-.9 2.8-.7.3-1.3-.4-1.4-1.4 0-1.4-.2-1.5-.7-.3-.7 1.6-3.9 1.9-6 .7-.6-.5-1.2-.6-1.2-.3 0 .2-1.3.1-2.8-.3-2.4-.7-2.8-.5-2.9 1.2-.2 2-1.9 3.7-3.8 3.7-.5 0-.4-.4.4-.9s1.5-2.2 1.7-3.8c.2-2.3.1-2.5-.7-1-.6.9-.7 2.2-.4 2.7.3.6-.1 1-1 1s-1.4-.4-1.1-.8c.2-.4-.4-.9-1.5-.9-2.1-.2-2.6 2.3-.6 3 .9.4.9.7-.1 1.8-1.1 1.2-1.3 1.2-1-.1.2-.9-.4-1.4-1.4-1.4-2.2.2-2.2-.1-.3-2.9 1.4-2.2 1.3-2.3-1.1-2.2-1.6 0-3.1.9-4.1 2.5-1 1.8-1.3 1.9-.9.5.6-1.9.6-1.9-1.2.1-.9 1.1-2.4 1.8-3.2 1.6-1.3-.5-1.3-.3 0 1.4.8 1 2.1 2.4 2.9 3 1.2.9 1.1 1.1-.1 1.1-1.4 0-4.4-2.7-4.1-3.7 0-.3-.4-.4-1-.2s-.5-.4.3-1.2c1-1.3 1-1.6-.3-1.6-.9 0-1.8.4-2.1.9-.8 1.3-5.6-1.1-5.3-2.6.1-.6-.2-1.2-.8-1.3-.5-.1-1.8-.9-2.8-1.7-1.6-1.5-1.7-1.5-1.7.1 0 .9.4 1.5.9 1.1.6-.3.9.4.8 1.4-.1 1.9-.2 1.9-1.9.4-1-.9-1.8-1.2-1.8-.7s-.5.2-1-.6c-.7-1.1-1-1.1-1-.2 0 .7-.5 1-1.1.7-.6-.4-.8-1.3-.6-1.9.3-.7-.1-1.3-.9-1.3s-1.4.6-1.4 1.4c0 .7-.4 1.3-1 1.3-.5 0-1-.4-1-.9 0-.8-2.1-.8-4-.1-.3.1-.9.2-1.3.1-.5-.1-.5.4-.2 1 .6.8.2.8-1.3 0-3.5-1.9-3.6.6-.2 4 3.8 3.8 3.3 5-.5 1.5-2.2-2-3.1-2.3-4.1-1.5-1 .8-1.4.8-1.4.1 0-.6.5-1.4 1-1.7.5-.3 1-1 1-1.6 0-.5-.9-.4-2 .3-1.3.8-1.9 2-1.6 3 .5 2.1-.5 2.3-2.2.6-1.6-1.6-1.5-2.8.2-2.8.8 0 2.1-.6 2.8-1.4.8-.7 3-1.7 4.9-2.1 1.9-.5 2.8-1 2.1-1.2-.6-.3-.9-1-.5-1.6.3-.7-.2-.5-1.3.3-2.2 1.8-6 1.9-5.7.3.1-.7-.6-.9-1.9-.5-1.6.4-1.8.7-.7 1.1.7.3 1.5 1.2 1.7 1.9.1.8-.2 1.1-.8.7-.5-.3-1 0-1.1.7 0 .7-.4.3-.9-.9-.8-1.9-1.3-2.1-3.2-1.4-1.3.5-2.2 1.6-2.2 2.5.1.9-.2 1.6-.8 1.6-.5 0-.7.4-.4.8.2.4-.4.9-1.5.9-1 .1-1.9-.4-1.9-1 0-.7-.4-.6-1 .3-.5.8-1 1-1 .4s.7-1.7 1.6-2.4c.8-.8 1.4-.9 1.2-.3-.2.6.1 1.2.6 1.2.6.1 1.1-.5 1.2-1.4.2-1.3-1.5-2-3.9-1.6-.5.1-.6-.3-.3-.8.4-.5 0-1.2-.6-1.4-.8-.3-.6-.6.5-.6 1-.1 1.5-.6 1.2-1.1-1.1-1.7-3.4.8-3 3.1.2 1.1 0 1.7-.6 1.4-.5-.4-.7-1-.4-1.5.8-1.3-2.7-2.2-3.9-1-.8.8-.6.9.7.4 1.3-.5 1.6-.2 1.1.9-.4 1.2-1.1 1.4-3.1.6-1.3-.5-2.9-.7-3.4-.3-.5.3-.9 0-.9-.5 0-.6.5-1.2 1-1.2.6-.1 1.4-.2 1.9-.3.5 0 1.3-.5 1.8-1s.3-.6-.4-.2c-.8.4-1.3.2-1.3-.6 0-1-.2-1-.9.1-.5.7-1.4 1-2 .7-.7-.5-1-.2-.9.6.2.7-.3 1.2-1 1-.7-.1-1.5.5-1.9 1.4-.4 1.1-.8 1.2-1.3.4-.6-.9-1.3-.7-2.8.8-1.9 1.9-2.1 1.9-2.7.4-.5-1.2-.9-1.3-1.2-.5-.4 1-.9 1-2.6.1-1.2-.7-2.5-1.1-2.9-1-.4.1-.6-.8-.5-1.9.1-1.8.3-1.9 1.3-.4.7.9 1.5 1.2 1.8.7.3-.5-.3-1.7-1.4-2.7-1.4-1.3-2-1.4-2-.5 0 1-.5.9-1.8-.3-2-1.9-3.4-1.3-2.5.9.6 1.7-.8 1.9-2.4.3-.8-.8-1.3-.8-1.7 0-.7 1 .8 1.5 4.1 1.4.6 0 .9.6.6 1.3-.3.8-1 1.1-1.7.7-.6-.4-2.2-.8-3.6-.8-1.9 0-2.5-.5-2.4-2.2 0-1.5-.3-2-1-1.4-1.1.9-1.7 1.1-3.5 1.1-.5 0-1.1.9-1.3 2-.2 1.2-.6 2.1-1 2-.5 0-.7-.1-.6-.3.6-.6-4.6-5.6-5.4-5.1-1.5.9-.8 2.6.8 2 1-.4 1.4-.2 1.1.6-.2.7-.9 1.2-1.5 1.1-.6-.2-.9.4-.6 1.2.4.8 1.1 1.2 1.7.8.6-.3.7-.1.3.5-.4.7-.3 1.2.3 1.2s1.6 1 2.2 2.2c1 2 .8 1.9-1.9-.5-1.8-1.7-3.2-2.4-3.6-1.8-.4.5.2 1.5 1.3 2.1 1.1.5 1.9 1.9 1.8 2.9 0 1.1-.5 1.7-1 1.4-.4-.3-.6-1.1-.3-1.8.6-1.5-2-2.8-3.7-1.8-.7.3-.9.3-.5-.2.4-.4-.2-1.7-1.5-2.7l-2.2-2 2.8.7c1.9.5 2.7.3 2.7-.6 0-.7-.3-.9-.7-.6-.3.4-1.2.2-1.8-.3-1.6-1.3-4 1.4-3.1 3.5.3.9 0 1.5-.9 1.5-1.8 0-1-5.1 1.1-6.6 1.2-1 1.1-1.2-.6-1.7-1.2-.3-2-.1-1.9.6.4 3.4-2.3 8.8-3.7 7.4-.4-.3.1-1.4 1-2.3 1.8-1.8 1.7-3.8-.2-4-2.2-.3-2.3-.4-1.3-2.2.7-1.4.6-1.9-.4-1.9-.8 0-1.7.7-2 1.4zm.6 1.7c-1 1.1-.8 1.7.6 2.5 1 .6 1.3 1.1.8 1.1-.6 0-1.6-.5-2.3-1.2-.8-.8-1.5-.8-2.7.2-.8.7-1.5 1-1.5.6 0-.3-.1-.9-.2-1.3-.2-.3.5-.7 1.6-.9 1-.1 2.3-.7 2.9-1.3 1.6-1.6 2.1-1.3.8.3zM55.6 55c.8 0 1.4.4 1.4.9 0 1.4-3.2 2.3-4.4 1.1-.7-.7-.6-1 .3-1 1 0 1.1-.3.2-1.3-.6-.8-.7-1.7-.3-2.1.4-.4.8-.1 1 .8.2.9 1 1.6 1.8 1.6zm11.9-2c.3.5.1 1-.5 1-1.4 0 0 2.6 3.1 5.9 1.6 1.7 1.8 2.3.7 1.8-.9-.3-1.8-.1-2 .5-.2.6-1 .3-1.7-.6-1.2-1.4-1.2-1.6.4-1 1.3.5 1.6.4 1.1-.4-.4-.7-1.3-1.2-2-1.2-.8 0-1.2-1.3-1.2-3.5.1-3.5.9-4.4 2.1-2.5zm-45.4 4c.6 0 .7.5.4 1-.4.6-1.2.4-2.1-.5-.9-.9-1.2-2-.7-2.7.5-1 .8-.8 1.1.4.2 1 .8 1.8 1.3 1.8zm4.9 0c0 .5-.7 1-1.6 1-.8 0-1.2-.5-.9-1 .3-.6 1-1 1.6-1 .5 0 .9.4.9 1zm32.1 2.7c-.9 1.5-1 1.4-.7-.7.6-3.5.7-3.7 1.2-2.3.3.7.1 2-.5 3zM87.5 57c1.2.5 1.4.9.6.9-1.1.1-1.1.5.2 1.9 1.4 1.5 1.4 1.9.3 1.9-.8 0-1.4-.3-1.4-.6.1-.3-.2-1.4-.6-2.3-.7-1.6-1-1.6-3.3-.1-2.2 1.5-2.5 1.5-4.1-.1-1.6-1.6-1.6-1.7 0-1.1.9.4 2.5.2 3.5-.4 2.1-1.2 2.2-1.2 4.8-.1zm-59 1.1c-.4.5.1 1.9 1.1 3s1.2 1.9.5 1.9c-.6 0-1.4-.7-1.7-1.5-.7-1.6-4.3-1.1-5.5.7-.3.5-1 1-1.5 1s-.8.5-.6 1.1c.2.7 0 .8-.4.4-1.1-1.1-1.4-3.8-.3-3.1.5.3.9 0 .9-.6s.5-.8 1-.5c.6.3 1 .1 1-.5s.4-.9.9-.6c.4.3 1.7-.1 2.7-.9 2.3-1.7 2.7-1.8 1.9-.4zm99.5.9c0 1.1-.5 2-1.1 2-.5 0-.8-.4-.4-.9.3-.5 0-1.3-.6-1.7-.8-.5-1 .1-.7 1.9.3 1.7.1 2.4-.8 2-.6-.2-1.1-1.2-.9-2.1.2-.9.4-2 .4-2.5.1-.4 1-.7 2.1-.7 1.3 0 2 .7 2 2zm4.6-.5c.8.8 1.5 1.7 1.4 2-.1 2.1.1 2.5 1 2 .6-.4.7.1.3 1.1-.5 1.4-.8 1.3-1.8-.6-.8-1.5-1.4-1.8-1.7-1-.3.9-.7.8-1.7-.4-1.2-1.4-1.2-1.6.3-1 .9.3 1.6.1 1.6-.5s-.4-1.1-1-1.1c-.5 0-1-.5-1-1 0-1.4.9-1.2 2.6.5zm9.7 0c-.3.9-.8 1.4-1 1.1-.3-.3-.2-.9.2-1.5.9-1.6 1.5-1.3.8.4zm20.7.1c0 .2-.7.4-1.5.4s-1.5-.4-1.5-1c0-.5.7-.7 1.5-.4.8.4 1.5.8 1.5 1zm33.9-.1c1.6.8 3.1 1.2 3.5 1 .3-.3.4-.2.1.2-.3.3 0 1.2.6 2 .9.9.8 1.3 0 1.3-.6 0-1.1-.5-1.1-1.1 0-.7-1-.9-2.7-.5-2.1.5-2.4.4-1.3-.4 1.2-.8 1-1-1-1.1-1.4 0-1.9-.3-1.1-.6 1.1-.5 1.1-.7 0-1.4-2.3-1.4 0-1 3 .6zM52.5 59c.4.6 1.1.8 1.6.5.5-.4.9-.1.9.4 0 .6-.5 1.1-1.1 1.1-.5 0-.7.5-.3 1.2.4.6.3.8-.4.4-.5-.3-1.3 0-1.6.6-.3.7-.4.1-.1-1.4.4-2.3.2-2.6-1.2-2.1-1.1.4-1.4.3-.9-.5.9-1.5 2.3-1.5 3.1-.2zm43 0c-.3.5-1.1 1-1.6 1-.6 0-.7-.5-.4-1 .3-.6 1.1-1 1.6-1 .6 0 .7.4.4 1zm81.9.5c1.7 1.3 1.8 1.5.3 1.5-.9 0-2 .1-2.4.2-.3.2-.7-.5-.9-1.5-.3-2.1.5-2.1 3-.2zM64 60c1.1.7 1.2 1 .2 1-.8 0-1.1.7-.8 1.7.3 1 .2 2.4-.3 3.2-.7 1-.9.8-.8-1 0-1.3-.3-3.2-.7-4.2-.9-1.9.1-2.2 2.4-.7zm12.4 3c-.3.2-.9-.2-1.4-1-.8-1.3-1-1.2-1 .2 0 .9.5 1.8 1.2 2 .8.3.7.6-.3 1s-1.5-.2-1.7-1.9c-.3-3.5.8-4.7 2.3-2.6.7 1 1.1 2 .9 2.3zm62.6-.8c0 .6-.7.5-1.5-.2s-1.5-1.7-1.5-2.2c0-.6.7-.5 1.5.2s1.5 1.7 1.5 2.2zm105.4-1.7c-.4.8-.1 1.6.5 1.6 3.2.4 3.6.6 3.4 1.7-.4 1.6 1.4 1.6 2-.1.3-.7.6-.5.6.5.1 2.4-1 2.3-5.9-.9-4.1-2.7-4.1-3-.3-4.2.1-.1 0 .6-.3 1.4zM18 61c0 .5-.2 1-.4 1-.3 0-.8-.5-1.1-1-.3-.6-.1-1 .4-1 .6 0 1.1.4 1.1 1zm163.1.3c-.6.8-.8 1.7-.4 2.1.4.4.1 1.1-.7 1.6-1.1.7-1.1 1.1-.1 2.3.9 1.2.9 1.7-.1 2.3-.7.4-1 .4-.6-.1.4-.4.3-1.4-.2-2-1.2-1.4.6-7.5 2.2-7.5.7 0 .6.5-.1 1.3zm7.9 1.6c0 .5-.8 1.2-1.7 1.6-1.4.5-1.5.4-.6-.6 1-1 .9-1.5-.5-2.6-1.5-1.3-1.5-1.3.6-.3 1.2.6 2.2 1.5 2.2 1.9zM13.4 61.8c.3.5-.1.9-.9.9s-1.2-.4-.9-.9c.3-.4.7-.8.9-.8.2 0 .6.4.9.8zm24.3 4.1c0 1.5-.1 1.8-.4.8-.2-.9-.8-1.5-1.1-1.3-.4.2-.8-.6-.8-1.9-.1-1.8.1-2.1 1-1.3.7.6 1.2 2.3 1.3 3.7zm45-3.4c0 .8-.4 1.2-.9.9-.5-.3-.6-1-.3-1.5.9-1.3 1.2-1.1 1.2.6zm27.3 0c.7.9.8 1.5.2 1.5-.5 0-1.2-.7-1.6-1.5-.3-.8-.4-1.5-.2-1.5s.9.7 1.6 1.5zm110.7-.3c-.2.7 0 2.1.5 3 .6 1.4.5 1.6-.7 1.2-1.6-.7-1.8-1.4-.9-3.8.7-1.9 1.8-2.2 1.1-.4zm43.3.4c0 .8-.5 1.2-1 .9-.6-.4-.8-1.1-.5-1.6.9-1.4 1.5-1.1 1.5.7zm-237.7.9c-.3.9-.8 1.4-1 1.1-.3-.3-.2-.9.2-1.5.9-1.6 1.5-1.3.8.4zm30.5 1c-.3.3-.9-.2-1.2-1.2-.6-1.4-.5-1.5.5-.6.7.7 1 1.5.7 1.8zm61.7-1.6c.3.5.1 1.2-.5 1.6-.5.3-1-.1-1-.9 0-1.8.6-2.1 1.5-.7zm38.9.7c.3.8.2 1.2-.4.9-.6-.3-1-1-1-1.6 0-1.4.7-1.1 1.4.7zm29.9 3.5c1.8 1.7 1.8 1.8-.2 1.6-1.1 0-1.8-.3-1.6-.5.2-.3-.5-1.9-1.7-3.6-1.7-2.5-1.8-2.7-.2-1.1 1 1 2.7 2.7 3.7 3.6zm20-4.4c.3.5-.5.8-1.8.8s-2.1-.3-1.8-.8c.2-.4 1-.7 1.8-.7s1.6.3 1.8.7zm22.4 1.1c1.9 1.5 2 1.9.9 3.5-1.2 1.6-1.4 1.6-2 .2-.3-.9-.2-1.3.3-1 .5.3 1.2.1 1.6-.5.3-.5.2-1-.2-1-.5 0-1.8-.7-2.9-1.5-1-.8-1.4-1.4-.9-1.4.6-.1 2 .7 3.2 1.7zM61 63.4c0 .3-.4.8-1 1.1-.5.3-1 .1-1-.4 0-.6.5-1.1 1-1.1.6 0 1 .2 1 .4zm26 .5c0 .6-.4 1.2-.8 1.5-.5.3-.9-.1-.9-.9s.4-1.5.9-1.5c.4 0 .8.4.8.9zm3 .6c1.1 1.3 1 1.4-.4.9-.9-.3-1.6-1-1.6-1.5 0-1.3.6-1.1 2 .6zm8.5.5c-.3.4-1.5.6-2.7.2-2.1-.5-2.1-.6-.2-1.2 2.1-.8 3.7-.3 2.9 1zm4.2-1.4c-.3.3-1.2.4-1.9.1-.8-.3-.5-.6.6-.6 1.1-.1 1.7.2 1.3.5zm74.8.4c-.3.5-1.1 1-1.6 1-.6 0-.7-.5-.4-1 .3-.6 1.1-1 1.6-1 .6 0 .7.4.4 1zm91.5 2c.7 1.4.6 1.8-.5 1.6-.8-.1-1.8-.6-2.2-1.1-.4-.4-.2-.5.6 0 .9.5 1.2.3.9-.6-.3-.8-1.1-1.3-1.7-1.1-.7.1-1-.2-.6-.8.8-1.3 2.2-.5 3.5 2zM33 64.4c0 .2-.7.7-1.6 1-.8.3-1.2.2-.9-.4.6-1 2.5-1.4 2.5-.6zm8.1.3c-1 .4-1 .7-.1 1.3.9.5.8.9-.3 1.3-1.3.5-1.6-.5-.8-3.1.1-.1.7-.2 1.4-.1.8 0 .8.2-.2.6zM54 65c0 .5-.5 1-1.1 1-.5 0-.7-.5-.4-1 .3-.6.8-1 1.1-1 .2 0 .4.4.4 1zm95 .5c0 .8-.4 1.5-1 1.5-.5 0-.7-.7-.4-1.5.4-.8.8-1.5 1-1.5.2 0 .4.7.4 1.5zm-69.7 1.7c-.4.7-1.6 1.4-2.5 1.4-1 .1-1.5-.2-1.2-.7.3-.5 1.2-.9 2-.9s1.4-.5 1.4-1.2c0-.6.3-.9.6-.5.3.3.2 1.1-.3 1.9zm22.1-1.4c.3.5-.1.9-.9.9s-1.2-.4-.9-.9c.3-.4.7-.8.9-.8.2 0 .6.4.9.8zm103.3 1.4c-.3.8-.6.5-.6-.6-.1-1.1.2-1.7.5-1.3.3.3.4 1.2.1 1.9zm37.7-.7c-.4.8-1 1.5-1.5 1.5-.4 0-.6-.7-.3-1.5.4-.8 1-1.5 1.5-1.5.4 0 .6.7.3 1.5zm15.6-.6c0 .6-.4 1.2-.8 1.5-.5.3-.9-.1-.9-.9s.4-1.5.9-1.5c.4 0 .8.4.8.9zm14.5.1c.3.6-.1.7-.9.4-1.8-.7-2.1-1.4-.7-1.4.6 0 1.3.4 1.6 1zm53.5-.6c0 .3-.4.8-1 1.1-.5.3-1 .1-1-.4 0-.6.5-1.1 1-1.1.6 0 1 .2 1 .4zM51.5 67c.3.5.1 1-.4 1-.6 0-1.1-.5-1.1-1 0-.6.2-1 .4-1 .3 0 .8.4 1.1 1zm15 .9c-.3.6-1.1 1.1-1.6 1.1s-.4-.6.3-1.4c1.4-1.6 2.4-1.3 1.3.3zm54.5-1.6c0 .2-1 1.2-2.2 2.3l-2.3 1.9 1.9-2.3c1.8-2.1 2.6-2.7 2.6-1.9zm6.4.9c-.3.4-.9.8-1.5.8-.5 0-.9-.4-.9-.8 0-.5.7-.9 1.5-.9s1.2.4.9.9zm25.1-.2c.3.5.2 1-.4 1-.5 0-1.3-.5-1.6-1-.3-.6-.2-1 .4-1 .5 0 1.3.4 1.6 1zm39 .8c-.3.3-1.1 0-1.8-.7-.9-1-.8-1.1.6-.5 1 .3 1.5.9 1.2 1.2zm71.8.2c-.3 1.1-.9 2-1.5 2-.5 0-.4-.9.2-2 .6-1.1 1.2-2 1.4-2 .2 0 .2.9-.1 2zm49.1-1.1c.3.5-.2 1.5-1.2 2.2-1.5 1.2-1.6 1.2-.5-.2.7-.9 1-1.9.6-2.2-.3-.4-.4-.7 0-.7.3 0 .8.4 1.1.9zM47.5 68c.3.5.1 1-.4 1-.6 0-1.1-.5-1.1-1 0-.6.2-1 .4-1 .3 0 .8.4 1.1 1zm43 0c.3.6-.1.7-.9.4-1.8-.7-2.1-1.4-.7-1.4.6 0 1.3.4 1.6 1zm246.4.2c1.4-.5 1.4-.4.2 1.1-.8 1-1.4 1.6-1.5 1.5-.1-.2-.8-1.2-1.6-2.3-1-1.4-1-1.7-.1-.8.7.6 2.1.9 3 .5zm-275.2 2c-.3.8-.6.5-.6-.6-.1-1.1.2-1.7.5-1.3.3.3.4 1.2.1 1.9zm77.1-.1c.3 1.1.1 1.1-.7-.1-.7-1-1.1-1.1-1.1-.3 0 1.7-1.7 1.7-2.3 0-.3-.9.2-1.3 1.6-1.2 1.1.1 2.3.8 2.5 1.6zm127.6-.5c.3.8.2 1.2-.4.9-.6-.3-1-1-1-1.6 0-1.4.7-1.1 1.4.7zm50.3.5c.2 1.6-.1 1.9-.9 1.1-.5-.5-.7-1.5-.4-2.1 1-1.5 1.2-1.4 1.3 1zM125 69.4c0 1.1-1.9 1.5-2.5.6-.3-.5.1-1 .9-1 .9 0 1.6.2 1.6.4zm129.7 1.1c0 .8-.4 1.2-.9.9-.5-.3-.6-1-.3-1.5.9-1.3 1.2-1.1 1.2.6zm41.7 1.5c-.6.6-1 .2-1.1-1.2-.2-1.6.1-1.8 1-.9.7.7.8 1.4.1 2.1zm62.9-.5c-.7 2.1-1.3 1.9-1.3-.6 0-1.1.4-1.8 1-1.4.5.3.7 1.2.3 2zm20.7-2.1c0 .3-.4.8-1 1.1-.5.3-1 .1-1-.4 0-.6.5-1.1 1-1.1.6 0 1 .2 1 .4zm31.7 1.8c-.3.8-.6.5-.6-.6-.1-1.1.2-1.7.5-1.3.3.3.4 1.2.1 1.9zm13.7-1c-.3.4-.9.8-1.5.8-.5 0-.9-.4-.9-.8 0-.5.7-.9 1.5-.9s1.2.4.9.9zm-214.9.8c.3.5.1 1-.4 1-.6 0-1.1-.5-1.1-1 0-.6.2-1 .4-1 .3 0 .8.4 1.1 1zm30.4 2.4c-.3.3-1.1-.5-1.8-1.7-1.3-2.1-1.2-2.1.5-.5 1 1 1.6 2 1.3 2.2zM467 71.1c0-.7.5-.9 1-.6 1.7 1.1 1.1 2.1-1.3 2.3-1.5.1-2.4-.4-2.4-1.3 0-1.1.4-1.2 1.4-.4.9.9 1.3.8 1.3 0zm-316.3.5c-.3.3-1.2.4-1.9.1-.8-.3-.5-.6.6-.6 1.1-.1 1.7.2 1.3.5zm113.3-.2c0 .2-.7.7-1.6 1-.8.3-1.2.2-.9-.4.6-1 2.5-1.4 2.5-.6zm80.7 1.8c-.3.8-.6.5-.6-.6-.1-1.1.2-1.7.5-1.3.3.3.4 1.2.1 1.9zm197.8-.4c-.3.3-1.1 0-1.8-.7-.9-1-.8-1.1.6-.5 1 .3 1.5.9 1.2 1.2zm-230 .2c.3.5.1 1-.4 1-.6 0-1.1-.5-1.1-1 0-.6.2-1 .4-1 .3 0 .8.4 1.1 1zm86.5 0c0 .5-.5 1-1.1 1-.5 0-.7-.5-.4-1 .3-.6.8-1 1.1-1 .2 0 .4.4.4 1zm118 1c0 .5-.4 1-1 1-.5 0-1-.5-1-1 0-.6.5-1 1-1 .6 0 1 .4 1 1zm24.2.4c.7-.4.8-.2.4.5-.9 1.3-2.6.5-2.5-1.2 0-.9.2-.8.6.1.2.6 1 .9 1.5.6zm-211.2 0c0 .2-.9.6-2 .9-1.1.3-1.8.1-1.4-.4.5-.9 3.4-1.3 3.4-.5zm273.6 4c.2 1.3-.1 1.5-1.1.6-.8-.7-2-.8-2.7-.4-.9.6-.9.3.1-.9 1.7-2.1 3.3-1.8 3.7.7zm-190.2.2c.3.8.2 1.2-.4.9-.6-.3-1-1-1-1.6 0-1.4.7-1.1 1.4.7zM624.5 80c-.5.8-1.1.8-1.7.2-.6-.6-.7-1.6-.3-2.2.5-.8 1.1-.8 1.7-.2.6.6.7 1.6.3 2.2zm-51.1-.2c.3.5-.1.9-.9.9s-1.2-.4-.9-.9c.3-.4.7-.8.9-.8.2 0 .6.4.9.8zM682 81c0 .5-.4 1-1 1-.5 0-1-.5-1-1 0-.6.5-1 1-1 .6 0 1 .4 1 1zm4 .5c-.6.8 0 1 2 .9 1.7-.1 2.8.2 2.5.6-.3.4-1.5.6-2.8.2-2-.5-2.1-.4-.7 1.3 1.4 1.8 1.4 1.8-.9.2-3-2-3.6-4.6-1.1-4.4 1.3.1 1.6.5 1 1.2zm43.8 3.4c-.7.2-1.4-.1-1.6-.8-.3-.9-1-.7-2.6.6l-2.1 1.8 1.9-2.2c1.5-1.8 2.1-2 3.7-1 1.2.8 1.5 1.3.7 1.6zm12.3-1.6c-.1.4-.4.8-.8.8-.5.1-1.9.5-3.3 1l-2.5.9 2.5-2c2.4-1.9 4.2-2.2 4.1-.7zm19.6.2c0 .8-.4 1.5-.9 1.5-1 0-1.1-1.4-.1-2.3.9-1 1-.9 1 .8zM765 87c-.8.5-1.7.7-2.1.4-.4-.2-.9.2-1.2.8-.2.7-.8.9-1.3.5-.5-.5-.1-1.3.9-1.8.9-.6 1.7-1.7 1.7-2.5 0-1.3.2-1.3 1.7.1 1.3 1.4 1.4 1.8.3 2.5zm76.4-2.5c.8 2.1-2.9 3.9-5.2 2.6-1.5-.9-1.4-1 .6-1.1 1.2 0 2.5-.7 2.8-1.5.8-1.9 1-1.9 1.8 0zm-21.4.4c0 .6-.4 1.2-.8 1.5-.5.3-.9-.1-.9-.9s.4-1.5.9-1.5c.4 0 .8.4.8.9zm29.7 1.1c-.4 2.7-1.7 3.8-1.7 1.3 0-1.8.8-3.3 1.7-3.3.1 0 .2.9 0 2zm24.8 2c-.4 1.2-.9 1.9-1.2 1.7-.3-.3-.2-1.5.2-2.7.4-1.2.9-1.9 1.2-1.7.3.3.2 1.5-.2 2.7zm16.5-1c-.7.4-.9 1.3-.5 2 .5.9.1.8-1.6-.1-1.3-.7-2.8-1.2-3.2-1.1-.5.1-.5-.3-.2-.9.4-.6 1.6-.9 2.6-.6 1.1.3 1.9.1 1.9-.5 0-.5.5-.6 1.1-.2.8.5.8.9-.1 1.4zm5 1.5c-1.6 3.1-3 3.2-3 .4 0-1.5.5-1.9 1.5-1.5.8.3 1.4.2 1.4-.2-.3-1.6.1-2.5.8-1.9.3.4 0 1.8-.7 3.2zm121-2c-.7.9-1.5 1.3-1.7 1.1-.7-.7.7-2.6 1.9-2.6.6 0 .6.6-.2 1.5zm-171.3 1.3c-.1 1.9-3.2 2.7-4.2 1.1-.4-.5.2-.6 1.1-.2 1.1.4 1.5.3 1.1-.4-.4-.6-.1-1.4.5-1.6.7-.3 1.4-.6 1.5-.6.1-.1.1.7 0 1.7zm-52.7-.4c0 .3-.4.8-1 1.1-.5.3-1 .1-1-.4 0-.6.5-1.1 1-1.1.6 0 1 .2 1 .4zm13.1 1.3c.2-.1.3 0 .1.2-.6 1.1-3.9.6-3.9-.5 0-.9.5-1 1.7-.4 1 .5 1.9.8 2.1.7zm53.2-.4c.3.8 0 1.4-.7 1.4s-1.3-.6-1.3-1.4c0-.7.4-1.3.8-1.3s.9.6 1.2 1.3zm11.2-.3c-.3.5-.2 1 .3 1 .6 0 1.2.6 1.5 1.3.4 1-.2 1.3-1.9.9-2-.3-2.2-.7-1.3-2.3.5-1.1 1.2-1.9 1.5-1.9.3 0 .2.4-.1 1zm96.2 2.2c.4 2.8-.6 1.8-1.2-1.2-.2-1.2-.1-2 .2-1.6.4.4.8 1.6 1 2.8zM816 89c0 .5-.4 1-1 1-.5 0-1-.5-1-1 0-.6.5-1 1-1 .6 0 1 .4 1 1zm19 0c0 .5-.5 1-1.1 1-.5 0-.7-.5-.4-1 .3-.6.8-1 1.1-1 .2 0 .4.4.4 1zm30-.2c0 .4-.8 1.2-1.8 1.9-1.5.9-1.9.8-1.9-.3 0-.7.4-1.1.9-.8.4.3.8 0 .8-.5 0-.6.5-1.1 1-1.1.6 0 1 .3 1 .8zm2.3.7c-.3.9-.8 1.4-1 1.1-.3-.3-.2-.9.2-1.5.9-1.6 1.5-1.3.8.4zm-44.7.2c-1 1.1-3.7 1.2-3 .2.3-.5 1.2-.9 2.1-.9.9 0 1.3.3.9.7zm31.4.3c0 .5-.4 1-1 1-.5 0-1-.5-1-1 0-.6.5-1 1-1 .6 0 1 .4 1 1zm32.4.2c-.5.7-.2.9.8.6.8-.4 2.1-.2 2.9.4 1.1.8 1.1.9-.3.4-1-.3-2 0-2.4.6-.4.7-.9.6-1.5-.3-1.2-1.9-1.1-2.9.2-2.9.5 0 .7.5.3 1.2zm47.1 1.3c-.1 1.4-.6 2.9-1 3.3-.4.4-.4-.3-.1-1.6.9-2.6-.2-2.8-3-.6-1.9 1.5-1.9 1.6.1.9 1.5-.5 1.7-.3.8.6-.6.6-1.7.8-2.4.4-.9-.6-.4-1.5 1.7-3.2 3.7-2.9 4.3-2.9 3.9.2zM853 92.8c-.7.3-1.9-.3-2.8-1.3-1.6-1.5-1.5-1.6 1.2-.4 1.5.7 2.3 1.5 1.6 1.7zm73-.8c0 .5-.4 1-1 1-.5 0-1-.5-1-1 0-.6.5-1 1-1 .6 0 1 .4 1 1zm63.5 1c.3.5.1 1-.4 1-.6 0-1.1-.5-1.1-1 0-.6.2-1 .4-1 .3 0 .8.4 1.1 1zm4.9-.2c.2.4-.5.9-1.7.9-1.7.2-1.9 0-.7-.7 1.8-1.2 1.8-1.2 2.4-.2zm-30.8 2.5c.1.9-.3 2-.9 2.4-.7.3-.9.2-.4-.2.4-.5 0-1.6-.9-2.6-1.4-1.6-1.4-1.7.2-1.5.9.2 1.8 1 2 1.9zm38.7.2c-.3.8-1 1.5-1.5 1.5-.7 0-.6-.5.1-1.3.6-.8.7-1.8.3-2.2-.4-.5-.2-.5.5-.1s1 1.3.6 2.1zm-51.9 0c-.4.8-.7 1.5-.9 1.5-.2 0-.5-.7-.9-1.5-.3-.9 0-1.5.9-1.5s1.2.6.9 1.5zm23.1-.5c-.3.6.4 1.4 1.7 1.9 1.3.6 1.6 1 .8 1-2.3.1-5.4-2.6-3.8-3.2 1.9-.8 2-.8 1.3.3zm4.2-.4c-.3.3-1.2.4-1.9.1-.8-.3-.5-.6.6-.6 1.1-.1 1.7.2 1.3.5zm-423.2 47.1c32.6 6.7 54.6 18.2 78.8 41.2 25.8 24.6 40 51 45.2 84.6 1.4 8.6 1.6 14.8 1.2 28.5-.8 25.2-4.3 39.7-14.8 60.1-14.1 27.5-41.8 54.3-70.1 68-2.7 1.3-4.8 2.5-4.8 2.8.1 3.1 1.4 3.1 160.6 3.3l158.9.3v87l-140.1.3-140.1.2 17.9 41.6c9.8 22.9 17.8 41.8 17.8 42 0 .2-21.9.4-48.7.4h-48.8l-52.7-118.8c-29-65.3-53-119.5-53.4-120.4-.5-1.6 2.2-1.7 37.8-2 36.5-.3 38.6-.4 44-2.5 20-7.5 35.4-23.9 41.3-43.8 3.6-11.9 3.8-28.9.6-40.8-5.5-20.6-21.5-38.3-41.1-45.5l-7.5-2.7-100.5-.3-100.5-.3-18.2-42.2c-10.1-23.2-18.3-42.6-18.3-43 0-.4 55.2-.6 122.8-.4 119.1.3 123 .4 132.7 2.4zM420.3 391.5c4.9 11.5 28.4 66.9 52.2 123 23.8 56.1 50.4 118.6 59 139 8.6 20.3 25.8 60.8 38.2 90 12.4 29.1 25.8 60.6 29.7 70l7.3 17-244 .3c-134.2.1-244.2.1-244.4-.1-.1-.2 1.9-5.5 4.6-11.8 7.5-17.5 43.8-103 49.2-115.9 2.6-6.3 8.1-19.2 12.1-28.5l7.3-17 48.9-.3c27-.1 49.3.1 49.8.6.4.4-3.6 10.9-8.8 23.2-19.3 45-26.5 62.3-26.1 62.6.2.2 48.6.3 107.5.2l107-.3-35.9-85.5c-19.8-47-45.5-108-57-135.5-11.6-27.5-23.7-56.3-27-64-29.9-71.1-36.6-87.1-36.2-87.8.2-.4 22.3-.6 49-.5l48.6.3 9 21zm345.7 355V891h-93V602h93v144.5z"/><path d="M49 51.5c-.7.9-.8 1.5-.2 1.5.5 0 1.2-.7 1.6-1.5.3-.8.4-1.5.2-1.5s-.9.7-1.6 1.5zM78.5 51c-.8 1.3.3 3 1.8 3 .8 0 .7-.3-.2-.9-.7-.5-1-1.4-.7-2 .4-.6.5-1.1.2-1.1s-.8.4-1.1 1zM107.5 51c-.4.6-1.1.7-1.7.4-.7-.4-.8-.2-.4.5.6.9 1.1.9 2.2 0 1.4-1.1 1.8-1.9 1-1.9-.3 0-.8.5-1.1 1zM40 52v1.5c0 1.2 1.4.4 1.6-1 .1-.8-.2-1.5-.7-1.5-.5 0-.9.4-.9 1zM75.4 53.6c.3.9.6 1.8.6 2 0 .3.4.3 1-.1 1.1-.7.2-3.5-1.2-3.5-.6 0-.7.7-.4 1.6zM135.1 53.6c0 1.1.3 1.4.6.6.3-.7.2-1.6-.1-1.9-.3-.4-.6.2-.5 1.3zM149.1 56c.7 1.8 1.5 2.7 2.2 2.3.8-.5.8-.8-.1-1.1-.7-.2-1.2-1-1.2-1.7 0-.8-.4-1.6-1-2-.5-.3-.5.7.1 2.5zM72.5 55c-.3.5-.2 1 .4 1 .5 0 1.3-.5 1.6-1 .3-.6.2-1-.4-1-.5 0-1.3.4-1.6 1zM153.3 55.6c2 .6 2.3 2 .5 2.7-.7.2-.9.8-.5 1.3.9 1 2.8-1.6 2.4-3.1-.2-.6-1.2-1.1-2.3-1.2-1.6-.2-1.6-.1-.1.3zM204.7 56.7c-.4.3-.7 1.1-.7 1.7 0 .6.5.5 1.2-.2.6-.6.9-1.4.7-1.7-.3-.3-.9-.2-1.2.2zM145.5 59c.3.5 1.4 1 2.3 1 1.5 0 1.5-.2.2-1-2-1.3-3.3-1.3-2.5 0zM282 60.9c0 .6.4 1.3 1 1.6.6.3.7-.1.4-.9-.7-1.8-1.4-2.1-1.4-.7zM287.4 60.8c.4.3 1.4.7 2.2.8.9.1 1.3 0 1-.4-.4-.3-1.4-.7-2.2-.8-.9-.1-1.3 0-1 .4zM307 61.6c-.9.3-2.1 1.3-2.7 2.3-1 1.6-.8 1.8 1.7 1.7 2-.1 2.6-.4 1.9-1.3-.7-.8-.4-1.5.8-2.2 1.8-1 1.1-1.2-1.7-.5zM331.7 63.5c.2.6 1.4 1.1 2.7 1.1 1.2 0 2.3-.5 2.3-1.1 0-.5-1.3-1-2.7-1-1.5 0-2.6.5-2.3 1zM363 66c0 1.4.5 1.8 1.7 1.3 1.1-.4 1.3-.8.5-1.1-.7-.2-1-.8-.6-1.3.3-.5 0-.9-.5-.9-.6 0-1.1.9-1.1 2zM372.5 64.9c-.3.5-.2 1.2.3 1.5.5.3.9-.1.9-.9 0-1.7-.3-1.9-1.2-.6zM454.7 67.7c-.4.3-.7 1.1-.7 1.7 0 .6.5.5 1.2-.2.6-.6.9-1.4.7-1.7-.3-.3-.9-.2-1.2.2zM548.7 68.7c.3.7.6 1.3.8 1.3.2 0 .5-.6.8-1.3.3-.8-.1-1.4-.8-1.4-.7 0-1.1.6-.8 1.4zM494.6 69.3c.3 1 .9 1.5 1.2 1.2.3-.3 0-1.1-.7-1.8-1-.9-1.1-.8-.5.6zM537 70.1c0 .5.5.7 1 .4.6-.3 1-.8 1-1.1 0-.2-.4-.4-1-.4-.5 0-1 .5-1 1.1zM576.6 70.6c-.3.9-.2 1.2.5.9.5-.4 1.7-.1 2.6.7 1.5 1.2 1.5 1.1.2-1-1.6-2.6-2.5-2.8-3.3-.6zM602.6 70.8c-.3.6-.1 1.4.5 1.7 1.4.9 2 .2 1-1.4-.6-.8-1.1-.9-1.5-.3zM600.1 71.8c-.1.8-.6 1-1.3.6-1-.5-1-.4-.1.6 1.5 1.6 2.8.8 2-1.2-.4-1.1-.6-1.1-.6 0zM570.5 72.8c-.4.4 1.9 3.2 2.7 3.2.2 0 .4-.8.4-1.8 0-1.7-1.9-2.6-3.1-1.4zM630.2 74.1c-1.2 1.1-2.7 1.7-3.2 1.4-.6-.3-.7.1-.4 1 .4.9 1.2 1.4 1.9 1.1.7-.2 1.8.1 2.4.7.8.8 1.4.8 2.4-.2s.9-1.1-.4-.6c-1 .4-2 .2-2.4-.4-.3-.6-.1-1.1.6-1.1s.9-.3.6-.7c-.4-.3-.2-1.2.4-2 1.7-2 .6-1.6-1.9.8zM641.7 75.3c-1.7 3.2-1.7 3.2.2.9 1.1-1.3 2.6-2 3.5-1.6.8.3 2.3 0 3.3-.6 1.7-1.1 1.7-1.1 0-.6-1 .3-2.6.2-3.6-.3-1.3-.7-2-.3-3.4 2.2zM664.6 72.8c-.3.5.1.9.9.9s1.2-.4.9-.9c-.3-.4-.7-.8-.9-.8-.2 0-.6.4-.9.8zM709.9 73.7c-1.3 1.6-1.2 1.7.4.4.9-.7 1.7-1.5 1.7-1.7 0-.8-.8-.3-2.1 1.3zM655.6 73.8c-.3.5.1.9.9.9s1.2-.4.9-.9c-.3-.4-.7-.8-.9-.8-.2 0-.6.4-.9.8zM650.5 75.1c-.4.6-.5 1.3-.2 1.6.7.7 2.7-.6 2.7-1.8 0-1.2-1.7-1.2-2.5.2zM687.1 75.6c0 1.1.3 1.4.6.6.3-.7.2-1.6-.1-1.9-.3-.4-.6.2-.5 1.3zM689.2 76.6c-.1 1.2.3 2.6.8 2.9.6.4.7-.1.3-1-.3-1 0-2 .6-2.5 1-.5 1-.8-.1-1.2-.9-.4-1.4.2-1.6 1.8zM748 75c-.9.6-1 1-.3 1 .6 0 1.5-.5 1.8-1 .8-1.2.4-1.2-1.5 0zM766 75c-1.3.8-1.2 1 .3 1 .9 0 1.7-.5 1.7-1 0-1.2-.1-1.2-2 0zM618 76.6c0 .8.5 1.2 1 .9.6-.3 1-1 1-1.6 0-.5-.4-.9-1-.9-.5 0-1 .7-1 1.6zM659.4 75.7c.6 1.2-.5 1.8-2.6 1.4-.5 0-.8.3-.8.9 0 1.3 2 1.3 4 0 1.3-.8 1.3-1.1.1-2.2-1-1-1.2-1-.7-.1zM669.7 76.4c-.6 1.5.1 2.6 1.6 2.6.5 0 .7-.6.4-1.4-.3-.8-.1-1.7.6-2 .7-.2.5-.5-.4-.5-.9-.1-1.9.5-2.2 1.3zM663.6 77.6c-.5 1.4-.4 1.5.9.4 1.7-1.4 1.9-2 .6-2-.5 0-1.2.7-1.5 1.6zM716.6 77.6c-1 2.6-.7 3.5 1.2 3.2 1-.2 1.6.2 1.4 1-.1.8.2 1.1.8.7.5-.3 1-.1 1 .4 0 .6.5 1.1 1.2 1.1.6 0 .1-1.1-1.2-2.5-1.2-1.3-2.7-2.2-3.1-1.9-1.3.8-1.1-1 .3-2.4.8-.8.8-1.2.1-1.2-.6 0-1.4.7-1.7 1.6zM849.1 77c-.9.5-.4.7 1.3.7 2.9 0 3.2-.2 1.3-1-.8-.3-2-.2-2.6.3zM673 78.2c0 .9.5 2 1 2.3 1.3.8 1.3-.5 0-2.5-.8-1.3-1-1.3-1 .2zM676 78.5c0 .8.2 1.5.4 1.5s.6-.7 1-1.5c.3-.8.1-1.5-.4-1.5-.6 0-1 .7-1 1.5zM745 77.4c0 .2.7.7 1.6 1 .8.3 1.2.2.9-.4-.6-1-2.5-1.4-2.5-.6zM752.7 78.6c.6 1.5 2.3 1.9 2.3.5 0-.5-.7-1.1-1.4-1.4-1-.4-1.3-.1-.9.9zM797.6 78.3c.3 1 .9 1.5 1.2 1.2.3-.3 0-1.1-.7-1.8-1-.9-1.1-.8-.5.6zM699.2 80.7c-.2 2.2 0 2.4 1.3 1.3 1.8-1.5 1.9-2.6.2-3.3-.8-.3-1.4.4-1.5 2zM712.6 78.7c-.4.5-1.6.9-2.7.9-3.5.3-3.9.4-3.9 1.4 0 .6.9.6 2.5 0 1.8-.7 2.4-.6 2.2.3-.1.7.4 1.2 1.2 1.2.8 0 1.5-1 1.6-2.3.2-2.5.1-2.5-.9-1.5zM855 79c0 .5.5 1 1.1 1 .5 0 .7-.5.4-1-.3-.6-.8-1-1.1-1-.2 0-.4.4-.4 1zM887.7 79.1c-1 .6-2.4.8-3.2.6-.7-.3-1.6-.3-1.9 0-.8.8 1.3 3.3 2.8 3.3.6 0 .4-.5-.4-1-1.3-.9-1.3-1 .1-1 .8 0 2.4-.7 3.5-1.5 2.2-1.7 1.7-1.9-.9-.4zM737 80.5c-1.4.8-2 1.4-1.4 1.5.5 0 1.9-.7 3-1.5 2.4-1.8 1.6-1.9-1.6 0zM756.6 79.8c.2.3-.1 1.1-.7 1.8-.7.8-.7 1.4.1 1.9 1.3.8 2.6-2.4 1.3-3.4-.5-.5-.8-.6-.7-.3zM795.5 79.9c-.3.5-.2 1.2.3 1.5.5.3.9-.1.9-.9 0-1.7-.3-1.9-1.2-.6zM817 80.1c-1.2.8-1 .9.8.4 1.3-.4 2.2-.2 2.2.4 0 .6.5 1.1 1.1 1.1.8 0 .8-.5-.1-1.5-1.5-1.8-2-1.8-4-.4zM844.1 80.6c0 1.1.3 1.4.6.6.3-.7.2-1.6-.1-1.9-.3-.4-.6.2-.5 1.3zM870.5 80c.3.5 1.1 1 1.6 1 .6 0 .7-.5.4-1-.3-.6-1.1-1-1.6-1-.6 0-.7.4-.4 1zM789.6 81.7c-.6 1.4-.5 1.5.5.6.7-.7 1-1.5.7-1.8-.3-.3-.9.2-1.2 1.2zM803 81.1c0 .5.5.7 1.2.3.8-.5.9-.1.4 1.2-.5 1.4-.4 1.6.5.7.6-.6.8-1.6.5-2.2-.9-1.4-2.6-1.4-2.6 0zM812.5 81.1c-.4.6 0 1.8.9 2.7 1.5 1.5 1.6 1.5 1.6-.5 0-2.5-1.5-3.8-2.5-2.2zM834.6 81.2c.3.5 1 .6 1.5.3 1.3-.9 1.1-1.2-.6-1.2-.8 0-1.2.4-.9.9zM899.7 80.7c-1.1 1.1-.8 4.3.5 4.3.6 0 .8-.3.5-.6-.3-.4-.2-1.5.4-2.5.9-1.8 0-2.6-1.4-1.2zM908.5 81.1c-.4.6.1 1.6 1 2.3 1.6 1.1 1.6 1.4.1 2.8-1 1-1.3 2.4-.9 3.5.6 1.6.5 1.6-1 .4-1.1-.9-1.7-1-1.7-.2 0 .6.5 1.1 1 1.1h1.8c.4 0 .7-.7.7-1.6 0-.8.7-1.9 1.4-2.4 2-1.2 2.1-4.7.2-4.6-.9.1-1.5-.5-1.3-1.2.3-1.5-.4-1.6-1.3-.1zM932.5 81c-.3.5-.1 1 .4 1 .6 0 1.1-.5 1.1-1 0-.6-.2-1-.4-1-.3 0-.8.4-1.1 1zM792 82c0 .5.5 1 1.1 1 .5 0 .7-.5.4-1-.3-.6-.8-1-1.1-1-.2 0-.4.4-.4 1zM856.4 82.7c1 1.1 3.7 1.2 3 .2-.3-.5-1.2-.9-2.1-.9-.9 0-1.3.3-.9.7zM929.2 82.9c-1.1.7-1.1.9 0 1.4.9.3 1.5-.1 1.5-.9s-.1-1.4-.1-1.4c-.1 0-.7.4-1.4.9zM948.7 83.1c.7.7 1.5 1 1.8.7.3-.3-.2-.9-1.2-1.2-1.4-.6-1.5-.5-.6.5zM936 84c-.8.5-1.2 1.1-1 1.4.3.2 1.4-.2 2.4-1 2.2-1.5 1-1.9-1.4-.4zM965.7 83.7c-.2.5.4 1.6 1.5 2.5 1 1 1.8 1.4 1.8.9 0-.6-.5-1.3-1.1-1.7-.8-.4-.7-.9.2-1.5 1.1-.7 1-.9-.3-.9-.9 0-1.9.3-2.1.7zM986.5 84c.3.5.8 1 1.1 1 .2 0 .4-.5.4-1 0-.6-.5-1-1.1-1-.5 0-.7.4-.4 1zM989.5 84c.3.5.8 1 1.1 1 .2 0 .4-.5.4-1 0-.6-.5-1-1.1-1-.5 0-.7.4-.4 1zM947.3 85.5c0 .8.4 1.5.9 1.5.4 0 .8-.4.8-.9 0-.6-.4-1.2-.8-1.5-.5-.3-.9.1-.9.9zM952 85.1c0 .5.5.7 1 .4.6-.3 1-.8 1-1.1 0-.2-.4-.4-1-.4-.5 0-1 .5-1 1.1zM980.1 85.7c.7 1.2 1.5 2 1.8 1.7.3-.2-.3-1.2-1.3-2.2-1.7-1.6-1.8-1.6-.5.5zM940.4 85.7c1 1.1 3.7 1.2 3 .2-.3-.5-1.2-.9-2.1-.9-.9 0-1.3.3-.9.7zM960.5 86c.3.5.8 1 1.1 1 .2 0 .4-.5.4-1 0-.6-.5-1-1.1-1-.5 0-.7.4-.4 1zM975.1 85.7c-.1 1.7 1.6 2.5 2.5 1.2.4-.7.3-.9-.4-.5-.5.3-1.3 0-1.5-.6-.4-.9-.6-1-.6-.1zM984.4 86.6c.3.9.6 1.8.6 2 0 .3.8 0 1.9-.5 1-.6 2.2-.7 2.6-.3.5.4.5.2.1-.5s-1.3-1-2.1-.6c-.8.3-1.5 0-1.5-.6s-.5-1.1-1.1-1.1c-.6 0-.8.7-.5 1.6zM994.1 86.6c0 1.1.3 1.4.6.6.3-.7.2-1.6-.1-1.9-.3-.4-.6.2-.5 1.3zM951.4 88.5c.3 2.1 1.6 3.1 1.6 1.2 0-.9-.4-1.8-.9-2.1-.5-.4-.8.1-.7.9zM957 89.1c0 .5.5.7 1 .4.6-.3 1-.8 1-1.1 0-.2-.4-.4-1-.4-.5 0-1 .5-1 1.1z"/></svg>