<svg width="42" height="38" viewBox="0 0 42 38" fill="none" xmlns="http://www.w3.org/2000/svg">
<path d="M13.5861 21.4375L14.2814 15.625L20.9298 15.625V17.6719H16.422L16.1642 19.9297C16.3517 19.8203 16.5965 19.724 16.8986 19.6406C17.2058 19.5573 17.5053 19.5156 17.797 19.5156C18.9272 19.5156 19.7944 19.8516 20.3986 20.5234C21.0079 21.1901 21.3126 22.1276 21.3126 23.3359C21.3126 24.0651 21.1486 24.7266 20.8204 25.3203C20.4975 25.9089 20.0418 26.362 19.4532 26.6797C18.8647 26.9974 18.1694 27.1562 17.3673 27.1562C16.6538 27.1562 15.9845 27.0104 15.3595 26.7188C14.7345 26.4219 14.2449 26.0182 13.8907 25.5078C13.5366 24.9922 13.3621 24.4115 13.3673 23.7656H16.0079C16.034 24.1823 16.1668 24.513 16.4064 24.7578C16.6459 25.0026 16.9611 25.125 17.3517 25.125C18.2371 25.125 18.6798 24.4688 18.6798 23.1562C18.6798 21.9427 18.1381 21.3359 17.0548 21.3359C16.4402 21.3359 15.9819 21.5339 15.6798 21.9297L13.5861 21.4375Z" fill="#F2CC6A"/>
<path d="M28.5939 22.3516C28.5939 23.888 28.2475 25.0729 27.5548 25.9062C26.8673 26.7396 25.8959 27.1562 24.6407 27.1562C23.3751 27.1562 22.3959 26.737 21.7032 25.8984C21.0105 25.0599 20.6642 23.8776 20.6642 22.3516V20.2734C20.6642 18.737 21.0079 17.5521 21.6954 16.7188C22.3881 15.8854 23.3647 15.4688 24.6251 15.4688C25.8855 15.4688 26.8621 15.888 27.5548 16.7266C28.2475 17.5651 28.5939 18.75 28.5939 20.2813V22.3516ZM25.9611 19.9375C25.9611 19.1198 25.8543 18.5104 25.6407 18.1094C25.4272 17.7031 25.0887 17.5 24.6251 17.5C24.172 17.5 23.8413 17.6875 23.6329 18.0625C23.4298 18.4375 23.3204 19.0052 23.3048 19.7656V22.6719C23.3048 23.5208 23.4116 24.1432 23.6251 24.5391C23.8387 24.9297 24.1772 25.125 24.6407 25.125C25.0887 25.125 25.4194 24.9349 25.6329 24.5547C25.8465 24.1693 25.9558 23.5677 25.9611 22.75V19.9375Z" fill="#F2CC6A"/>
<path fill-rule="evenodd" clip-rule="evenodd" d="M26.0386 14.4265L21.001 3.29126L15.9633 14.4265L3.64667 15.482L12.9448 23.1797L10.1438 34.8273L21.0001 28.6986L31.8565 34.8284L29.0552 23.1797L38.3534 15.482L26.0386 14.4265ZM41.8901 14.358C41.6136 13.5551 40.8593 12.9866 39.9704 12.9107L27.8462 11.8715L23.0547 1.28033C22.7009 0.502209 21.896 0 21 0C20.1041 0 19.2988 0.502209 18.9473 1.28033L14.1558 11.8715L2.02969 12.9107C1.14079 12.9882 0.388078 13.5566 0.109936 14.358C-0.166603 15.161 0.0887871 16.0417 0.761069 16.5983L9.92596 24.1856L7.22369 35.4224C7.02598 36.2486 7.36565 37.103 8.09176 37.5985C8.48206 37.8663 8.94061 38 9.40076 38C9.79618 38 10.1919 37.9008 10.5454 37.7011L21 31.7992L31.4528 37.7011C32.2196 38.1337 33.1838 38.0941 33.9083 37.5985C34.6344 37.103 34.9741 36.2486 34.7764 35.4224L32.0741 24.1856L41.239 16.5983C41.9109 16.0417 42.1667 15.1628 41.8901 14.358Z" fill="#F2CC6A"/>
</svg>
