<svg width="42" height="38" viewBox="0 0 42 38" fill="none" xmlns="http://www.w3.org/2000/svg">
<path d="M21.3672 27H13.4297V25.2812L17.0859 21.4375C17.987 20.4115 18.4375 19.5964 18.4375 18.9922C18.4375 18.5026 18.3307 18.1302 18.1172 17.875C17.9036 17.6198 17.5938 17.4922 17.1875 17.4922C16.7865 17.4922 16.4609 17.6641 16.2109 18.0078C15.9609 18.3464 15.8359 18.7708 15.8359 19.2812H13.1953C13.1953 18.5833 13.3698 17.9401 13.7188 17.3516C14.0677 16.7578 14.5521 16.2943 15.1719 15.9609C15.7917 15.6276 16.4844 15.4609 17.25 15.4609C18.4792 15.4609 19.4245 15.7448 20.0859 16.3125C20.7526 16.8802 21.0859 17.6953 21.0859 18.7578C21.0859 19.2057 21.0026 19.6432 20.8359 20.0703C20.6693 20.4922 20.4089 20.9375 20.0547 21.4062C19.7057 21.8698 19.1406 22.4922 18.3594 23.2734L16.8906 24.9688H21.3672V27Z" fill="#F2CC6A"/>
<path d="M20.8516 21.4375L21.5469 15.625H28.1953V17.6719L23.6875 17.6719L23.4297 19.9297C23.6172 19.8203 23.862 19.724 24.1641 19.6406C24.4714 19.5573 24.7708 19.5156 25.0625 19.5156C26.1927 19.5156 27.0599 19.8516 27.6641 20.5234C28.2734 21.1901 28.5781 22.1276 28.5781 23.3359C28.5781 24.0651 28.4141 24.7266 28.0859 25.3203C27.763 25.9089 27.3073 26.362 26.7188 26.6797C26.1302 26.9974 25.4349 27.1562 24.6328 27.1562C23.9193 27.1562 23.25 27.0104 22.625 26.7188C22 26.4219 21.5104 26.0182 21.1562 25.5078C20.8021 24.9922 20.6276 24.4115 20.6328 23.7656H23.2734C23.2995 24.1823 23.4323 24.513 23.6719 24.7578C23.9115 25.0026 24.2266 25.125 24.6172 25.125C25.5026 25.125 25.9453 24.4688 25.9453 23.1562C25.9453 21.9427 25.4036 21.3359 24.3203 21.3359C23.7057 21.3359 23.2474 21.5339 22.9453 21.9297L20.8516 21.4375Z" fill="#F2CC6A"/>
<path fill-rule="evenodd" clip-rule="evenodd" d="M26.0386 14.4265L21.001 3.29126L15.9633 14.4265L3.64667 15.482L12.9448 23.1797L10.1438 34.8273L21.0001 28.6986L31.8565 34.8284L29.0552 23.1797L38.3534 15.482L26.0386 14.4265ZM41.8901 14.358C41.6136 13.5551 40.8593 12.9866 39.9704 12.9107L27.8462 11.8715L23.0547 1.28033C22.7009 0.502209 21.896 0 21 0C20.1041 0 19.2988 0.502209 18.9473 1.28033L14.1558 11.8715L2.02969 12.9107C1.14079 12.9882 0.388078 13.5566 0.109936 14.358C-0.166603 15.161 0.0887871 16.0417 0.761069 16.5983L9.92596 24.1856L7.22369 35.4224C7.02598 36.2486 7.36565 37.103 8.09176 37.5985C8.48206 37.8663 8.94061 38 9.40076 38C9.79618 38 10.1919 37.9008 10.5454 37.7011L21 31.7992L31.4528 37.7011C32.2196 38.1337 33.1838 38.0941 33.9083 37.5985C34.6344 37.103 34.9741 36.2486 34.7764 35.4224L32.0741 24.1856L41.239 16.5983C41.9109 16.0417 42.1667 15.1628 41.8901 14.358Z" fill="#F2CC6A"/>
</svg>
