<svg width="42" height="38" viewBox="0 0 42 38" fill="none" xmlns="http://www.w3.org/2000/svg">
<path d="M18.2656 27H15.625L15.625 18.5938L13.0312 19.3516V17.3516L18.0234 15.625H18.2656V27Z" fill="#F2CC6A"/>
<path d="M27.5938 22.3516C27.5938 23.888 27.2474 25.0729 26.5547 25.9062C25.8672 26.7396 24.8958 27.1562 23.6406 27.1562C22.375 27.1562 21.3958 26.737 20.7031 25.8984C20.0104 25.0599 19.6641 23.8776 19.6641 22.3516V20.2734C19.6641 18.737 20.0078 17.5521 20.6953 16.7188C21.388 15.8854 22.3646 15.4688 23.625 15.4688C24.8854 15.4688 25.862 15.888 26.5547 16.7266C27.2474 17.5651 27.5938 18.75 27.5938 20.2813V22.3516ZM24.9609 19.9375C24.9609 19.1198 24.8542 18.5104 24.6406 18.1094C24.4271 17.7031 24.0885 17.5 23.625 17.5C23.1719 17.5 22.8411 17.6875 22.6328 18.0625C22.4297 18.4375 22.3203 19.0052 22.3047 19.7656V22.6719C22.3047 23.5208 22.4115 24.1432 22.625 24.5391C22.8385 24.9297 23.1771 25.125 23.6406 25.125C24.0885 25.125 24.4193 24.9349 24.6328 24.5547C24.8464 24.1693 24.9557 23.5677 24.9609 22.75V19.9375Z" fill="#F2CC6A"/>
<path fill-rule="evenodd" clip-rule="evenodd" d="M26.0386 14.4265L21.001 3.29126L15.9633 14.4265L3.64667 15.482L12.9448 23.1797L10.1438 34.8273L21.0001 28.6986L31.8565 34.8284L29.0552 23.1797L38.3534 15.482L26.0386 14.4265ZM41.8901 14.358C41.6136 13.5551 40.8593 12.9866 39.9704 12.9107L27.8462 11.8715L23.0547 1.28033C22.7009 0.502209 21.896 0 21 0C20.1041 0 19.2988 0.502209 18.9473 1.28033L14.1558 11.8715L2.02969 12.9107C1.14079 12.9882 0.388078 13.5566 0.109936 14.358C-0.166603 15.161 0.0887871 16.0417 0.761069 16.5983L9.92596 24.1856L7.22369 35.4224C7.02598 36.2486 7.36565 37.103 8.09176 37.5985C8.48206 37.8663 8.94061 38 9.40076 38C9.79618 38 10.1919 37.9008 10.5454 37.7011L21 31.7992L31.4528 37.7011C32.2196 38.1337 33.1838 38.0941 33.9083 37.5985C34.6344 37.103 34.9741 36.2486 34.7764 35.4224L32.0741 24.1856L41.239 16.5983C41.9109 16.0417 42.1667 15.1628 41.8901 14.358Z" fill="#F2CC6A"/>
</svg>
